<svg width="91" height="92" viewBox="0 0 91 92" fill="none" xmlns="http://www.w3.org/2000/svg">
<g clip-path="url(#clip0_1_502)">
<path d="M29.0512 91.9999C45.0957 91.9999 58.1024 78.9932 58.1024 62.9487C58.1024 46.9041 45.0957 33.8975 29.0512 33.8975C13.0067 33.8975 0 46.9041 0 62.9487C0 78.9932 13.0067 91.9999 29.0512 91.9999Z" fill="#CDDCEB"/>
<path d="M44.3112 58.1024C60.3557 58.1024 73.3624 45.0957 73.3624 29.0512C73.3624 13.0067 60.3557 0 44.3112 0C28.2667 0 15.26 13.0067 15.26 29.0512C15.26 45.0957 28.2667 58.1024 44.3112 58.1024Z" fill="#233B99"/>
<path d="M61.9489 91.9999C77.9934 91.9999 91.0001 78.9932 91.0001 62.9487C91.0001 46.9041 77.9934 33.8975 61.9489 33.8975C45.9044 33.8975 32.8977 46.9041 32.8977 62.9487C32.8977 78.9932 45.9044 91.9999 61.9489 91.9999Z" fill="#FF7549"/>
</g>
<defs>
<clipPath id="clip0_1_502">
<rect width="91" height="92" fill="white"/>
</clipPath>
</defs>
</svg>
